# xmcd CD database file
#
# Track frame offsets:
#	150
#	11806
#	26614
#	40323
#	50492
#	64575
#	75116
#	88114
#	101082
#	110712
#	119850
#	132844
#
# Disc length: 1933 seconds
#
# Revision: 0
# Processed by: cddbd v1.5.2PL0 Copyright (c) Steve Scherf et al.
# Submitted via: CDex 1.51
#
DISCID=a0078b0c
DTITLE=George Jones - Best of George Jones
DYEAR=1900
DGENRE=Country
TTITLE0=She Thinks I Care
TTITLE1=He Stopped Loving Her Today
TTITLE2=Golden Ring (with Tammy Wynette)
TTITLE3=Walk Through This World With Me
TTITLE4=A Good Year For The Roses
TTITLE5=Her Name Is...
TTITLE6=When The Grass Grows Over Me
TTITLE7=Southern California (with Tammy Wynette)
TTITLE8=The Race Is On
TTITLE9=Love Bug
TTITLE10=Things Have Gone To Peices
TTITLE11=Two Story House (with Tammy Wynette)
EXTD=
EXTT0=
EXTT1=
EXTT2=
EXTT3=
EXTT4=
EXTT5=
EXTT6=
EXTT7=
EXTT8=
EXTT9=
EXTT10=
EXTT11=
PLAYORDER=
